<?xml version="1.0" encoding="utf-8"?>
<!-- Generator: Adobe Illustrator 15.0.0, SVG Export Plug-In . SVG Version: 6.00 Build 0)  -->
<!DOCTYPE svg PUBLIC "-//W3C//DTD SVG 1.1//EN" "http://www.w3.org/Graphics/SVG/1.1/DTD/svg11.dtd">
<svg version="1.1" id="Layer_1" xmlns="http://www.w3.org/2000/svg" xmlns:xlink="http://www.w3.org/1999/xlink" x="0px" y="0px"
	 width="520px" height="110px" viewBox="0 0 520 110" enable-background="new 0 0 520 110" xml:space="preserve">
<symbol  id="Arrow_28" viewBox="-22.852 -15.869 45.703 31.737">
	<polygon fill="none" points="-22.852,-15.869 22.852,-15.869 22.852,15.868 -22.852,15.868 	"/>
	<g>
		<polygon points="-22.852,4.76 4.63,4.76 -6.479,15.868 6.98,15.868 22.852,-0.002 6.98,-15.869 -6.479,-15.869 4.63,-4.76 
			-22.852,-4.76 		"/>
	</g>
</symbol>
<g>
	<g>
		<path d="M2.556,7.169h14.927l6.032,15.355l6.884-15.447h12.308l6.885,15.447l6.032-15.355h14.683L56.353,39.388H43.924
			l-7.493-15.904l-7.494,15.904H16.507L2.556,7.169z"/>
		<path d="M72.736,7.169h36.373v8.774H86.75v3.245h20.836v7.723H86.75v3.474h22.664v8.774H72.736V7.169z"/>
		<path d="M126.285,7.169h14.927l6.031,15.355l6.885-15.447h12.306l6.885,15.447l6.032-15.355h14.683l-13.952,32.219h-12.429
			l-7.494-15.904l-7.494,15.904h-12.429L126.285,7.169z"/>
		<path d="M205.848,6.941h14.135l17.974,32.219H222.48l-2.254-4.296H205.3l-2.193,4.296h-15.231L205.848,6.941z M216.693,27.277
			l-3.899-7.77l-3.899,7.77H216.693z"/>
		<path d="M239.719,7.169h13.343l15.171,14.122V7.169h14.135v31.99h-12.672l-15.842-14.761V39.16h-14.134V7.169z"/>
		<path d="M298.143,16.218H285.59V7.169h39.359v9.048h-12.551V39.16h-14.256V16.218z"/>
	</g>
	<g>
		<path fill="#FFFFFF" stroke="#000000" stroke-width="4" stroke-miterlimit="10" d="M399.947,33.828
			c0,3.416-2.848,6.185-6.357,6.185h-40.285c-3.512,0-6.361-2.769-6.361-6.185V15.787c0-3.416,2.85-6.184,6.361-6.184h40.285
			c3.51,0,6.357,2.768,6.357,6.184V33.828z"/>
		
			<use xlink:href="#Arrow_28"  width="45.703" height="31.737" x="-22.852" y="-15.869" transform="matrix(0.8202 0 0 -0.8202 427.1816 24.8076)" overflow="visible"/>
		
			<rect x="348.887" y="12.757" fill="#FFFFFF" stroke="#000000" stroke-width="4" stroke-miterlimit="10" width="49.328" height="7.96"/>
		<path fill="#FFFFFF" stroke="#000000" stroke-width="4" stroke-miterlimit="10" d="M509.443,33.828
			c0,3.416-2.848,6.185-6.359,6.185h-40.285c-3.512,0-6.359-2.769-6.359-6.185V15.787c0-3.416,2.848-6.184,6.359-6.184h40.285
			c3.512,0,6.359,2.768,6.359,6.184V33.828z"/>
	</g>
	<g>
		<path d="M4.284,81.633V81.51c0-12.868,11.737-22.474,26.787-22.474c11.089,0,18.578,4.618,22.826,11.206l-13.897,6.957
			c-1.872-3.078-4.537-5.233-9.145-5.233c-5.688,0-9.433,4.249-9.433,9.42v0.124c0,5.603,3.888,9.543,9.433,9.543
			c4.752,0,7.417-2.217,9.505-5.418l13.897,6.711c-4.249,6.403-11.305,11.637-23.834,11.637
			C16.453,103.982,4.284,94.993,4.284,81.633z"/>
		<path d="M57.491,59.96H74.34v15.208h15.41V59.96h16.849v43.099H89.75V87.604H74.34v15.454H57.491V59.96z"/>
		<path d="M112.355,59.96h24.626c8.929,0,14.617,1.909,18.146,4.926c3.024,2.586,4.608,5.787,4.608,10.221v0.123
			c0,6.28-3.816,10.651-9.937,13.176l11.737,14.653H142.31l-9.505-12.313h-0.144h-3.457v12.313h-16.849V59.96z M136.477,80.463
			c4.032,0,6.48-1.539,6.48-4.187v-0.123c0-2.771-2.52-4.126-6.409-4.126h-7.345v8.436H136.477z"/>
		<path d="M162.683,81.633V81.51c0-12.499,12.025-22.474,27.579-22.474s27.434,9.852,27.434,22.35v0.124
			c0,12.498-12.025,22.473-27.578,22.473S162.683,94.131,162.683,81.633z M200.702,81.633V81.51c0-5.11-4.104-9.729-10.585-9.729
			c-6.409,0-10.441,4.557-10.441,9.604v0.124c0,5.109,4.104,9.728,10.585,9.728C196.669,91.237,200.702,86.682,200.702,81.633z"/>
		<path d="M222.298,59.96h17.569l10.801,15.146l10.8-15.146h17.57v43.099h-16.777V81.694l-11.593,15.33h-0.288l-11.593-15.33v21.364
			h-16.489V59.96z"/>
		<path d="M284.793,59.96h42.988v11.821h-26.426v4.372h24.625v10.404h-24.625v4.68h26.785v11.821h-43.348V59.96z"/>
		<path d="M332.674,59.96h16.85v30.785h23.689v12.313h-40.539V59.96z"/>
		<path d="M376.881,59.96h42.988v11.821h-26.426v4.372h24.625v10.404h-24.625v4.68h26.785v11.821h-43.348V59.96z"/>
		<path d="M420.584,96.594l9.002-9.174c5.471,3.571,11.736,5.049,17.641,5.049c3.023,0,4.32-0.678,4.32-1.847v-0.124
			c0-1.231-1.584-1.908-6.984-2.832c-11.305-1.97-21.242-4.74-21.242-13.853V73.69c0-8.189,7.488-14.53,21.387-14.53
			c9.721,0,16.92,1.97,22.754,5.91l-8.209,9.728c-4.752-2.955-10.441-4.248-15.121-4.248c-2.521,0-3.674,0.739-3.674,1.786v0.123
			c0,1.17,1.369,1.908,6.697,2.771c12.889,2.031,21.529,5.233,21.529,13.914v0.123c0,9.051-8.713,14.593-22.25,14.593
			C436.209,103.859,426.992,101.396,420.584,96.594z"/>
		<path d="M467.672,96.594l9.002-9.174c5.471,3.571,11.736,5.049,17.641,5.049c3.023,0,4.32-0.678,4.32-1.847v-0.124
			c0-1.231-1.584-1.908-6.984-2.832c-11.305-1.97-21.242-4.74-21.242-13.853V73.69c0-8.189,7.488-14.53,21.387-14.53
			c9.721,0,16.92,1.97,22.754,5.91l-8.209,9.728c-4.752-2.955-10.441-4.248-15.121-4.248c-2.521,0-3.674,0.739-3.674,1.786v0.123
			c0,1.17,1.369,1.908,6.697,2.771c12.889,2.031,21.529,5.233,21.529,13.914v0.123c0,9.051-8.713,14.593-22.25,14.593
			C483.297,103.859,474.08,101.396,467.672,96.594z"/>
	</g>
</g>
</svg>
